# xmcd
#
# Track frame offsets:
#	150
#	2761
#	30018
#	59616
#	84235
#	97673
#	126021
#	141955
#	156718
#	181294
#	197025
#	219014
#	248143
#
# Disc length: 3498 seconds
#
# Revision: 0
# Processed by: cddbd v1.4PL0 Copyright (c) Steve Scherf et al.
# Submitted via: EasyCDDAExtractor 4.6.9.1
#
DISCID=a00da80d
DTITLE=Peter Green and The Splinter Group - Cells Alive Germany 1998
DYEAR=1900
DGENRE=
TTITLE0=Intro
TTITLE1=Black Magic Woman
TTITLE2=Mama Keep your Big Mouth Shut
TTITLE3=Rattlesnake Shake
TTITLE4=The Supernatural
TTITLE5=Shake Your Hips
TTITLE6=Travelling Riverside Blues
TTITLE7=Steady Rolling Man
TTITLE8=The Stumble
TTITLE9=Albatross
TTITLE10=Green Manalishi
TTITLE11=Going Down
TTITLE12=Look Yonder Wall
EXTD=
EXTT0=
EXTT1=
EXTT2=
EXTT3=
EXTT4=
EXTT5=
EXTT6=
EXTT7=
EXTT8=
EXTT9=
EXTT10=
EXTT11=
EXTT12=
PLAYORDER=
